<svg width="100" height="76" viewBox="0 0 100 76" fill="none" xmlns="http://www.w3.org/2000/svg">
    <g clip-path="url(#clip0_526_539)">
        <g clip-path="url(#clip1_526_539)">
            <g clip-path="url(#clip2_526_539)">
                <path d="M0.961544 16.9217C0.961544 12.4025 2.78847 8.46015 6.34616 5.28707C9.90385 1.92169 14.1346 0.190918 19.0385 0.190918C21.0577 0.190918 23.2692 0.671687 25.5769 1.53707L25.1923 1.15246L27.5 2.21015H27.8846C28.6539 2.69092 29.5192 3.26784 30.5769 3.94092C30.5769 4.13323 30.9615 4.614 31.7308 5.28707C38.1731 10.9601 40.7692 19.5178 39.8077 30.864C38.75 47.2101 29.0385 62.0178 10.6731 75.1909C9.61539 76.0563 8.46154 76.5371 7.21154 76.5371C5.19231 76.5371 3.46154 75.7678 2.21154 74.1332C-0.0961486 71.4409 0.288467 68.9409 3.36539 66.6332C18.3654 55.7678 26.5385 43.9409 27.7885 31.2486C25 32.8832 22.0192 33.6525 18.9423 33.6525C14.0385 33.6525 9.90385 32.0178 6.25001 28.8448C2.69231 25.4794 0.961544 21.4409 0.961544 16.9217ZM60.3846 16.9217C60.3846 12.4025 62.2115 8.46015 65.7692 5.28707C69.3269 1.92169 73.5577 0.190918 78.4615 0.190918C80.4808 0.190918 82.6923 0.671687 85 1.53707L84.6154 1.24861C85.3846 1.44092 86.1539 1.82553 86.9231 2.3063H87.3077C88.3654 2.78707 89.2308 3.36399 90 4.03707C90 4.22938 90.3846 4.71015 91.1539 5.38323C97.5962 11.0563 100.192 19.614 99.2308 30.9601C98.1731 47.3063 88.4615 62.114 70.0962 75.2871C69.0385 76.1525 67.8846 76.6332 66.6346 76.6332C64.6154 76.6332 63.0769 75.864 62.0192 74.2294C59.4231 71.5371 59.7116 69.0371 62.7885 66.7294C77.7885 55.7678 85.9615 43.9409 87.3077 31.2486C84.5192 32.8832 81.5385 33.6525 78.4615 33.6525C73.5577 33.6525 69.4231 32.0178 65.7692 28.8448C62.2115 25.4794 60.3846 21.4409 60.3846 16.9217Z" fill="#40BF69"/>
            </g>
        </g>
    </g>
    <defs>
        <clipPath id="clip0_526_539">
            <rect width="100" height="76" fill="white"/>
        </clipPath>
        <clipPath id="clip1_526_539">
            <rect width="100" height="76.92" fill="white"/>
        </clipPath>
        <clipPath id="clip2_526_539">
            <rect width="100" height="76.9231" fill="white" transform="translate(0 -0.00146484)"/>
        </clipPath>
    </defs>
</svg>
