<svg width="149" height="36" viewBox="0 0 149 36" fill="none" xmlns="http://www.w3.org/2000/svg">
    <mask id="mask0_555_1207" style="mask-type:luminance" maskUnits="userSpaceOnUse" x="16" y="1" width="15" height="9">
        <path d="M16.2484 5.98508C19.8558 5.98508 23.1016 7.52596 25.3333 9.97236H30.3266C27.514 5.20464 22.2659 1.9978 16.2484 1.9978V5.98508Z" fill="white"/>
    </mask>
    <g mask="url(#mask0_555_1207)">
        <path d="M30.3266 1.9978H16.2484V9.97737H30.3266V1.9978Z" fill="white"/>
    </g>
    <mask id="mask1_555_1207" style="mask-type:luminance" maskUnits="userSpaceOnUse" x="8" y="2" width="16" height="24">
        <path d="M8.12671 4.13386V17.9518C8.12671 22.3593 11.7647 25.9313 16.2536 25.9313C19.2598 25.9313 21.8889 24.3254 23.2901 21.9441H16.2536C14.0117 21.9441 12.1927 20.158 12.1927 17.9568V2.50293C10.7508 2.86814 9.39033 3.41845 8.1318 4.13386" fill="white"/>
    </mask>
    <g mask="url(#mask1_555_1207)">
        <path d="M23.2901 2.50293H8.12671V25.9313H23.2901V2.50293Z" fill="white"/>
    </g>
    <mask id="mask2_555_1207" style="mask-type:luminance" maskUnits="userSpaceOnUse" x="-1" y="7" width="34" height="27">
        <path d="M-0.00012207 17.9519C-0.00012207 26.7619 7.27587 33.906 16.2486 33.906C23.8201 33.906 30.1841 28.8231 31.9878 21.9392C32.3241 20.6635 32.4973 19.3277 32.4973 17.9519C32.4973 16.5761 32.319 15.2404 31.9878 13.9646H16.2486V17.9519H28.4364C28.4364 19.3527 28.1918 20.6935 27.7434 21.9392C26.0722 26.5868 21.5578 29.9188 16.2486 29.9188C9.51778 29.9188 4.06078 24.5607 4.06078 17.9519V7.40088C1.53354 10.2125 -0.00012207 13.9096 -0.00012207 17.9519Z" fill="white"/>
    </mask>
    <g mask="url(#mask2_555_1207)">
        <path d="M32.5024 7.40088H-0.00012207V33.911H32.5024V7.40088Z" fill="white"/>
    </g>
    <path d="M49.3929 18.8777L49.2247 17.5519H49.1381C48.9241 17.8271 48.6439 18.0772 48.2923 18.2974C47.528 18.7926 46.6567 19.0428 45.6734 19.0428C44.0531 19.0428 42.6926 18.4775 41.587 17.3518C40.4813 16.2262 39.931 14.8004 39.931 13.0744C39.931 11.3484 40.4813 9.92757 41.587 8.79692C42.6876 7.67128 44.0531 7.10596 45.6734 7.10596C46.4376 7.10596 47.1408 7.23103 47.7828 7.48617C48.4248 7.74132 48.9598 8.07651 49.3878 8.49675C49.8158 8.91699 50.1623 9.35724 50.4272 9.82251C50.6922 10.2878 50.8807 10.763 50.9927 11.2483H48.7152C48.063 9.86754 47.0491 9.17714 45.6785 9.17714C44.6441 9.17714 43.7932 9.53234 43.1308 10.2478C42.4685 10.9582 42.1373 11.9037 42.1373 13.0744C42.1373 14.245 42.4685 15.1906 43.1308 15.901C43.7932 16.6114 44.6441 16.9716 45.6785 16.9716C46.1982 16.9716 46.6669 16.8765 47.0949 16.6914C47.5229 16.5013 47.8592 16.2762 48.1089 16.001C48.3586 15.7309 48.5471 15.4607 48.6846 15.1906C48.8222 14.9204 48.8885 14.6853 48.8885 14.4852V14.4001H45.9332V12.7442H51.0845V18.8777H49.398H49.3929Z" fill="white"/>
    <path d="M53.3622 18.8775V7.27588H58.7631C59.8229 7.27588 60.7044 7.63608 61.4126 8.3615C62.1209 9.08691 62.4775 10.0224 62.4775 11.1731C62.4775 12.2587 62.1412 13.1392 61.4738 13.8196C60.8063 14.5 59.986 14.8602 59.0179 14.9052L62.8189 18.8825H60.0318L56.2308 14.9052H55.5531V18.8825H53.3571L53.3622 18.8775ZM55.5582 12.9141H58.6816C59.1096 12.9141 59.4815 12.744 59.8025 12.4088C60.1235 12.0736 60.2815 11.6584 60.2815 11.1731C60.2815 10.6428 60.1235 10.2076 59.8076 9.86236C59.4917 9.52216 59.1147 9.34706 58.6765 9.34706H55.5531V12.9091L55.5582 12.9141Z" fill="white"/>
    <path d="M64.5925 18.8775V7.27588H72.5258V9.26702H66.7835V12.0836H72.1844V14.0748H66.7835V16.8914H72.5258V18.8825H64.5925V18.8775Z" fill="white"/>
    <path d="M74.7214 18.8775V7.27588H82.6547V9.26702H76.9124V12.0836H82.3133V14.0748H76.9124V16.8914H82.6547V18.8825H74.7214V18.8775Z" fill="white"/>
    <path d="M84.8506 18.8775V7.27588H87.8058L92.1113 15.3155H92.4476V7.27588H94.6436V18.8775H91.6884L87.3829 10.8379H87.0466V18.8775H84.8506Z" fill="white"/>
    <path d="M101.395 18.8775V7.27588H103.591V16.8063H109.16V18.8775H101.395Z" fill="white"/>
    <path d="M110.765 18.8775V7.27588H112.961V18.8775H110.765Z" fill="white"/>
    <path d="M124.441 18.8777L124.273 17.5519H124.186C123.972 17.8271 123.692 18.0772 123.34 18.2974C122.576 18.7926 121.705 19.0428 120.721 19.0428C119.101 19.0428 117.741 18.4775 116.635 17.3518C115.529 16.2262 114.979 14.8004 114.979 13.0744C114.979 11.3484 115.529 9.92757 116.635 8.79692C117.735 7.67128 119.101 7.10596 120.721 7.10596C121.485 7.10596 122.189 7.23103 122.831 7.48617C123.473 7.74132 124.008 8.07651 124.436 8.49675C124.864 8.91699 125.21 9.35724 125.475 9.82251C125.74 10.2878 125.929 10.763 126.041 11.2483H123.763C123.111 9.86754 122.097 9.17714 120.726 9.17714C119.692 9.17714 118.841 9.53234 118.179 10.2478C117.516 10.9582 117.185 11.9037 117.185 13.0744C117.185 14.245 117.516 15.1906 118.179 15.901C118.841 16.6114 119.692 16.9716 120.726 16.9716C121.246 16.9716 121.715 16.8765 122.143 16.6914C122.571 16.5013 122.907 16.2762 123.157 16.001C123.406 15.7309 123.595 15.4607 123.732 15.1906C123.87 14.9204 123.936 14.6853 123.936 14.4852V14.4001H120.981V12.7442H126.132V18.8777H124.446H124.441Z" fill="white"/>
    <path d="M128.405 18.8775V7.27588H130.601V11.9185H135.92V7.27588H138.116V18.8775H135.92V14.0698H130.601V18.8775H128.405Z" fill="white"/>
    <path d="M143.262 18.8775V9.34706H139.716V7.27588H149V9.34706H145.453V18.8775H143.257H143.262Z" fill="white"/>
    <path d="M41.6787 28.4527H44.6136V28.5928H41.5208V23.1396H44.5728V23.2797H41.6787V25.7712H44.3741V25.9112H41.6787V28.4527Z" fill="white"/>
    <path d="M45.9644 28.4527H48.7362V28.5928H45.8064V23.1396H45.9644V28.4527Z" fill="white"/>
    <path d="M51.7521 23.1396C52.5062 23.1396 53.1329 23.4048 53.6271 23.9301C54.1214 24.4554 54.366 25.1008 54.366 25.8662C54.366 26.6316 54.1163 27.277 53.6271 27.8023C53.1329 28.3276 52.5062 28.5928 51.7521 28.5928H49.7699V23.1396H51.7521ZM51.7521 28.4527C52.4654 28.4527 53.0514 28.2025 53.515 27.7073C53.9787 27.207 54.208 26.5966 54.208 25.8712C54.208 25.1458 53.9787 24.5304 53.515 24.0352C53.0514 23.5349 52.4654 23.2847 51.7521 23.2847H49.9278V28.4527H51.7521Z" fill="white"/>
</svg>
