<svg width="149" height="36" viewBox="0 0 149 36" fill="none" xmlns="http://www.w3.org/2000/svg">
<mask id="mask0_412_4140" style="mask-type:luminance" maskUnits="userSpaceOnUse" x="16" y="1" width="15" height="9">
<path d="M16.248 5.98503C19.8555 5.98503 23.1012 7.52592 25.3329 9.97232H30.3262C27.5136 5.20458 22.2655 1.99774 16.248 1.99774V5.98503Z" fill="white"/>
</mask>
<g mask="url(#mask0_412_4140)">
<path d="M30.3262 1.99774H16.248V9.97733H30.3262V1.99774Z" fill="#1D1D1D"/>
</g>
<mask id="mask1_412_4140" style="mask-type:luminance" maskUnits="userSpaceOnUse" x="8" y="2" width="16" height="24">
<path d="M8.12622 4.13368V17.9516C8.12622 22.3592 11.7642 25.9312 16.2531 25.9312C19.2593 25.9312 21.8885 24.3253 23.2897 21.9439H16.2531C14.0112 21.9439 12.1922 20.1579 12.1922 17.9566V2.50275C10.7503 2.86796 9.38984 3.41827 8.13132 4.13368" fill="white"/>
</mask>
<g mask="url(#mask1_412_4140)">
<path d="M23.2897 2.50275H8.12622V25.9312H23.2897V2.50275Z" fill="#1D1D1D"/>
</g>
<mask id="mask2_412_4140" style="mask-type:luminance" maskUnits="userSpaceOnUse" x="0" y="7" width="33" height="27">
<path d="M0 17.9518C0 26.7619 7.27602 33.906 16.2488 33.906C23.8203 33.906 30.1843 28.8231 31.988 21.9391C32.3243 20.6634 32.4975 19.3276 32.4975 17.9518C32.4975 16.576 32.3192 15.2403 31.988 13.9645H16.2488V17.9518H28.4366C28.4366 19.3526 28.192 20.6934 27.7436 21.9391C26.0724 26.5868 21.558 29.9187 16.2488 29.9187C9.51793 29.9187 4.06091 24.5606 4.06091 17.9518V7.40076C1.53367 10.2124 0 13.9095 0 17.9518Z" fill="white"/>
</mask>
<g mask="url(#mask2_412_4140)">
<path d="M32.5026 7.40076H0V33.911H32.5026V7.40076Z" fill="#1D1D1D"/>
</g>
<path d="M49.3933 18.8777L49.2251 17.5519H49.1385C48.9245 17.8271 48.6443 18.0772 48.2927 18.2973C47.5284 18.7926 46.6571 19.0428 45.6737 19.0428C44.0535 19.0428 42.693 18.4774 41.5874 17.3518C40.4817 16.2261 39.9314 14.8003 39.9314 13.0743C39.9314 11.3483 40.4817 9.92752 41.5874 8.79687C42.6879 7.67122 44.0535 7.1059 45.6737 7.1059C46.438 7.1059 47.1412 7.23097 47.7832 7.48611C48.4252 7.74126 48.9602 8.07645 49.3882 8.4967C49.8162 8.91694 50.1627 9.35719 50.4276 9.82246C50.6926 10.2877 50.8811 10.763 50.9931 11.2483H48.7156C48.0634 9.86748 47.0495 9.17709 45.6788 9.17709C44.6445 9.17709 43.7936 9.53229 43.1312 10.2477C42.4688 10.9581 42.1376 11.9037 42.1376 13.0743C42.1376 14.245 42.4688 15.1905 43.1312 15.901C43.7936 16.6114 44.6445 16.9716 45.6788 16.9716C46.1986 16.9716 46.6673 16.8765 47.0953 16.6914C47.5233 16.5013 47.8596 16.2762 48.1093 16.001C48.3589 15.7309 48.5475 15.4607 48.685 15.1905C48.8226 14.9204 48.8888 14.6853 48.8888 14.4851V14.4001H45.9336V12.7441H51.0848V18.8777H49.3984H49.3933Z" fill="#1D1D1D"/>
<path d="M53.3628 18.8775V7.27588H58.7637C59.8235 7.27588 60.705 7.63609 61.4133 8.3615C62.1215 9.08692 62.4782 10.0225 62.4782 11.1731C62.4782 12.2587 62.1419 13.1392 61.4744 13.8196C60.8069 14.5 59.9866 14.8602 59.0185 14.9053L62.8195 18.8826H60.0324L56.2314 14.9053H55.5537V18.8826H53.3577L53.3628 18.8775ZM55.5588 12.9141H58.6822C59.1102 12.9141 59.4822 12.744 59.8032 12.4088C60.1242 12.0736 60.2821 11.6584 60.2821 11.1731C60.2821 10.6428 60.1242 10.2076 59.8083 9.86237C59.4923 9.52217 59.1153 9.34707 58.6771 9.34707H55.5537V12.9091L55.5588 12.9141Z" fill="#1D1D1D"/>
<path d="M64.5928 18.8774V7.27576H72.5261V9.2669H66.7837V12.0835H72.1847V14.0747H66.7837V16.8913H72.5261V18.8824H64.5928V18.8774Z" fill="#1D1D1D"/>
<path d="M74.7214 18.8774V7.27576H82.6547V9.2669H76.9124V12.0835H82.3134V14.0747H76.9124V16.8913H82.6547V18.8824H74.7214V18.8774Z" fill="#1D1D1D"/>
<path d="M84.8508 18.8774V7.27576H87.8061L92.1116 15.3154H92.4479V7.27576H94.6439V18.8774H91.6887L87.3832 10.8378H87.0469V18.8774H84.8508Z" fill="#1D1D1D"/>
<path d="M101.395 18.8774V7.27576H103.591V16.8062H109.16V18.8774H101.395Z" fill="#1D1D1D"/>
<path d="M110.766 18.8775V7.27588H112.962V18.8775H110.766Z" fill="#1D1D1D"/>
<path d="M124.441 18.8776L124.273 17.5518H124.186C123.972 17.827 123.692 18.0771 123.34 18.2973C122.576 18.7926 121.705 19.0427 120.721 19.0427C119.101 19.0427 117.741 18.4774 116.635 17.3517C115.529 16.2261 114.979 14.8003 114.979 13.0743C114.979 11.3483 115.529 9.92746 116.635 8.79681C117.736 7.67116 119.101 7.10583 120.721 7.10583C121.486 7.10583 122.189 7.23091 122.831 7.48605C123.473 7.7412 124.008 8.07639 124.436 8.49663C124.864 8.91688 125.21 9.35713 125.475 9.8224C125.74 10.2877 125.929 10.7629 126.041 11.2482H123.763C123.111 9.86742 122.097 9.17703 120.726 9.17703C119.692 9.17703 118.841 9.53223 118.179 10.2476C117.516 10.958 117.185 11.9036 117.185 13.0743C117.185 14.2449 117.516 15.1905 118.179 15.9009C118.841 16.6113 119.692 16.9715 120.726 16.9715C121.246 16.9715 121.715 16.8764 122.143 16.6913C122.571 16.5012 122.907 16.2761 123.157 16.0009C123.407 15.7308 123.595 15.4606 123.733 15.1905C123.87 14.9203 123.936 14.6852 123.936 14.4851V14.4H120.981V12.7441H126.133V18.8776H124.446H124.441Z" fill="#1D1D1D"/>
<path d="M128.405 18.8774V7.27576H130.601V11.9184H135.921V7.27576H138.117V18.8774H135.921V14.0697H130.601V18.8774H128.405Z" fill="#1D1D1D"/>
<path d="M143.263 18.8774V9.34695H139.716V7.27576H149V9.34695H145.454V18.8774H143.258H143.263Z" fill="#1D1D1D"/>
<path d="M44.6865 23.0254V23.3945H41.793V25.6572H44.4883V26.0254H41.793V28.3379H44.7275V28.707H41.4062V23.0254H44.6865Z" fill="#1D1D1D" stroke="#1D1D1D" stroke-width="0.228703"/>
<path d="M46.0789 23.0255V28.338H48.8503V28.7071H45.6921V23.0255H46.0789Z" fill="#1D1D1D" stroke="#1D1D1D" stroke-width="0.228703"/>
<path d="M51.752 23.0254C52.536 23.0254 53.1932 23.3024 53.71 23.8516L53.8916 24.0635C54.2855 24.5704 54.4795 25.1731 54.4795 25.8662C54.4795 26.6588 54.2205 27.3324 53.7109 27.8799L53.71 27.8809C53.1932 28.43 52.536 28.707 51.752 28.707H49.6553V23.0254H51.752ZM50.042 28.3379H51.752C52.4349 28.3378 52.9906 28.1 53.4316 27.6289C53.8738 27.1515 54.0938 26.5695 54.0938 25.8711C54.0937 25.1721 53.8735 24.5854 53.4316 24.1133H53.4307C52.9897 23.6375 52.4349 23.3995 51.752 23.3994H50.042V28.3379Z" fill="#1D1D1D" stroke="#1D1D1D" stroke-width="0.228703"/>
</svg>
