<svg width="25" height="25" viewBox="0 0 25 25" fill="none" xmlns="http://www.w3.org/2000/svg">
    <path d="M2.5 12.5C2.5 7.78595 2.5 5.42893 3.96447 3.96447C5.42893 2.5 7.78595 2.5 12.5 2.5C17.214 2.5 19.5711 2.5 21.0355 3.96447C22.5 5.42893 22.5 7.78595 22.5 12.5C22.5 17.214 22.5 19.5711 21.0355 21.0355C19.5711 22.5 17.214 22.5 12.5 22.5C7.78595 22.5 5.42893 22.5 3.96447 21.0355C2.5 19.5711 2.5 17.214 2.5 12.5Z" stroke="#40BF69" stroke-width="1.5"/>
    <circle opacity="0.5" cx="16.5" cy="8.5" r="2" stroke="#40BF69" stroke-width="1.5"/>
    <path opacity="0.5" d="M2.5 10.6538L3.48073 10.513C10.459 9.51099 16.4238 15.5313 15.3571 22.5M22.5 13.8846L21.5266 13.7498C18.6828 13.356 16.1097 14.7718 14.7846 17.0001" stroke="#40BF69" stroke-width="1.5" stroke-linecap="round"/>
</svg>
